<svg xmlns="http://www.w3.org/2000/svg" width="23.449" height="23.449" viewBox="0 0 23.449 23.449"><defs><style>.a{fill:none;stroke:#603312;stroke-width:2px;}</style></defs><g transform="translate(1 1)"><path class="a" d="M14.746,0H6.7A6.7,6.7,0,0,0,0,6.7v8.043a6.7,6.7,0,0,0,6.7,6.7h8.043a6.7,6.7,0,0,0,6.7-6.7V6.7A6.7,6.7,0,0,0,14.746,0Z"/><g transform="translate(5.363 5.363)"><path class="a" d="M14.632,9.27a5.362,5.362,0,1,0,5.363,5.362A5.362,5.362,0,0,0,14.632,9.27Z" transform="translate(-9.27 -9.27)"/></g><g transform="translate(15.774 4.246)"><ellipse class="a" cx="0.715" cy="0.715" rx="0.715" ry="0.715"/></g></g></svg>