<svg xmlns="http://www.w3.org/2000/svg" width="24.379" height="23.193" viewBox="0 0 24.379 23.193"><defs><style>.a{fill:#603312;}</style></defs><g transform="translate(4.5 1.435)"><path class="a" d="M-2.477,35.443H3.81V19.424H-2.477ZM2.144,21.091V33.776H-.81V21.091Z" transform="translate(-1.671 -13.685)"/><path class="a" d="M0-1.435a3.5,3.5,0,0,0-3.5,3.5A3.5,3.5,0,0,0,0,5.556a3.5,3.5,0,0,0,3.5-3.5A3.5,3.5,0,0,0,0-1.435Zm1.829,3.5A1.831,1.831,0,0,1,0,3.889,1.831,1.831,0,0,1-1.833,2.06,1.831,1.831,0,0,1,0,.232,1.831,1.831,0,0,1,1.824,2.06Z" transform="translate(-1 0)"/><path class="a" d="M34.364,23.525a5.9,5.9,0,0,0-1.9-3.9,6.193,6.193,0,0,0-7.816-.4v-.717H18.608V34.525H24.9V25.779a1.6,1.6,0,1,1,3.2,0l.006,8.746h6.287V23.544ZM23.229,25.779v7.08H20.275V20.173h2.7V22.1l1.324.008.248-.385a4.424,4.424,0,0,1,3.737-2.033A4.345,4.345,0,0,1,32.715,23.9v8.955H29.762l0-7.08a3.264,3.264,0,1,0-6.529,0Z" transform="translate(-14.504 -12.767)"/></g></svg>