<svg xmlns="http://www.w3.org/2000/svg" width="28.854" height="23.588" viewBox="0 0 28.854 23.588"><defs><style>.a{fill:none;stroke:#603312;stroke-width:2px;}</style></defs><g transform="translate(0.542 1.817)"><g transform="translate(0 0)"><path class="a" d="M89.9,102.735a10.886,10.886,0,0,1-3.019.827,5.207,5.207,0,0,0,2.3-2.9,10.481,10.481,0,0,1-3.323,1.269,5.241,5.241,0,0,0-9.066,3.583,5.409,5.409,0,0,0,.122,1.2,14.833,14.833,0,0,1-10.8-5.482,5.242,5.242,0,0,0,1.61,7,5.18,5.18,0,0,1-2.368-.646v.058a5.265,5.265,0,0,0,4.2,5.149,5.228,5.228,0,0,1-1.374.172,4.607,4.607,0,0,1-.992-.089,5.291,5.291,0,0,0,4.9,3.651,10.532,10.532,0,0,1-6.5,2.235,9.963,9.963,0,0,1-1.254-.072A14.916,14.916,0,0,0,87.3,106.134c0-.232-.008-.455-.019-.677A10.455,10.455,0,0,0,89.9,102.735Z" transform="translate(-64.34 -100.277)"/></g></g></svg>